<?xml version="1.0" standalone="no"?>
<!DOCTYPE svg PUBLIC "-//W3C//DTD SVG 20010904//EN"
 "http://www.w3.org/TR/2001/REC-SVG-20010904/DTD/svg10.dtd">
<svg version="1.0" xmlns="http://www.w3.org/2000/svg"
 width="179.000000pt" height="50.000000pt" viewBox="0 0 179.000000 50.000000"
 preserveAspectRatio="xMidYMid meet">

<g transform="translate(0.000000,50.000000) scale(0.100000,-0.100000)"
fill="#000000" stroke="none">
<path d="M0 250 l0 -250 895 0 895 0 0 250 0 250 -895 0 -895 0 0 -250z m214
142 c6 -9 44 -8 70 3 13 6 21 3 28 -9 8 -13 13 -15 24 -5 20 17 46 3 42 -23
-1 -13 4 -38 11 -56 11 -27 12 -38 1 -60 -7 -15 -12 -41 -11 -59 4 -57 -23
-71 -131 -71 -112 0 -138 12 -138 63 0 18 4 36 9 39 4 3 6 17 3 31 -3 21 0 27
17 32 14 4 21 13 21 29 0 52 38 112 54 86z m325 -109 l40 -48 1 48 c0 35 4 47
15 47 12 0 15 -15 15 -75 0 -65 -2 -75 -18 -75 -10 0 -32 19 -50 42 l-32 42 0
-42 c0 -35 -3 -42 -20 -42 -18 0 -20 7 -20 68 0 99 9 104 69 35z m221 32 c35
-18 47 -54 30 -94 -32 -79 -150 -55 -150 30 0 29 6 42 26 58 32 25 55 26 94 6z
m178 -2 c2 -8 -6 -13 -22 -13 -25 0 -26 -2 -26 -60 0 -53 -2 -60 -20 -60 -18
0 -20 7 -20 60 0 57 -1 60 -25 60 -25 0 -32 10 -18 24 12 12 126 2 131 -11z
m52 -58 c0 -68 -2 -75 -20 -75 -18 0 -20 7 -20 68 0 71 4 82 27 82 10 0 13
-19 13 -75z m144 64 c33 -16 52 -62 38 -94 -27 -59 -102 -69 -142 -18 -27 35
-25 59 9 94 32 31 55 36 95 18z m128 -30 l33 -41 5 38 c3 27 11 40 23 42 15 3
17 -6 17 -72 0 -66 -2 -76 -18 -76 -10 0 -32 19 -50 42 l-32 42 0 -42 c0 -35
-3 -42 -20 -42 -18 0 -20 7 -20 68 0 97 11 104 62 41z m225 -29 c17 -36 32
-68 32 -72 2 -15 -37 -8 -43 7 -3 9 -18 15 -40 15 -21 0 -36 -6 -40 -15 -3 -8
-13 -15 -22 -15 -9 0 -14 6 -11 13 39 97 62 138 76 135 8 -2 30 -32 48 -68z
m85 8 l3 -63 38 -3 c57 -5 44 -22 -18 -22 l-55 0 0 75 c0 59 3 75 15 75 10 0
15 -16 17 -62z"/>
<path d="M293 251 c-18 -9 -33 -19 -33 -23 0 -12 58 13 64 28 3 8 4 13 3 13
-1 -1 -17 -9 -34 -18z"/>
<path d="M182 251 c5 -17 58 -35 58 -20 0 5 -8 9 -18 9 -10 0 -24 6 -31 13
-11 10 -13 9 -9 -2z"/>
<path d="M687 282 c-24 -26 -21 -49 7 -67 34 -23 66 -5 66 35 0 45 -44 64 -73
32z"/>
<path d="M1066 284 c-22 -22 -20 -50 6 -68 28 -20 33 -20 52 0 22 21 20 61 -3
74 -27 14 -37 13 -55 -6z"/>
<path d="M1427 266 c-11 -28 -8 -36 13 -36 23 0 25 9 7 34 -13 18 -14 18 -20
2z"/>
</g>
</svg>
